# xmcd
#
# Track frame offsets:
#	150
#	34307
#	52870
#	72365
#	89797
#	109165
#	132462
#	152690
#	173097
#	190527
#	210780
#	225032
#	247050
#
# Disc length: 3552 seconds
#
# Revision: 1
# Processed by: cddbd v1.4PL0 Copyright (c) Steve Scherf et al.
# Submitted via: audiograbber 1.80.04
#
DISCID=a60dde0d
DTITLE=Lynn White - At Her Best
DYEAR=1996
DGENRE=Blues
TTITLE0=Slow and Easy-Take Me To The Mountain Top
TTITLE1=You Left Your Homework Undone
TTITLE2=Home Girls
TTITLE3=Lonely Woman On The Loose
TTITLE4=Back In The Streets Again
TTITLE5=My Sex Machine
TTITLE6=Cheatin' In The Next Room
TTITLE7=A Losing Battle
TTITLE8=In The Wrong
TTITLE9=May The Best Man Win
TTITLE10=I Didn't Make My Move To Soon
TTITLE11=Your Time To Cry
TTITLE12=Blues In My Bedroom
EXTD=
EXTT0=
EXTT1=
EXTT2=
EXTT3=
EXTT4=
EXTT5=
EXTT6=
EXTT7=
EXTT8=
EXTT9=
EXTT10=
EXTT11=
EXTT12=
PLAYORDER=
